<?xml version="1.0" standalone="no"?><!DOCTYPE svg PUBLIC "-//W3C//DTD SVG 1.1//EN" "http://www.w3.org/Graphics/SVG/1.1/DTD/svg11.dtd"><svg t="1713703726353" class="icon" viewBox="0 0 1024 1024" version="1.1" xmlns="http://www.w3.org/2000/svg" p-id="1650" xmlns:xlink="http://www.w3.org/1999/xlink" width="200" height="200"><path d="M183.468521 173.377038C95.352754 261.497003 46.822127 378.657265 46.822127 503.272799c0 257.25304 209.289114 466.546352 466.546352 466.546352 123.091736 0 241.410588-49.034361 328.485304-135.324091l94.118603 94.122802a24.128885 24.128885 0 0 0 41.205487-17.064008v-398.172782a24.141479 24.141479 0 0 0-24.137281-24.137281h-398.168584a24.137281 24.137281 0 0 0-17.064008 41.205487l161.459519 161.459518c-49.462536 48.774098-115.934508 76.57185-185.89904 76.571851-146.229944 0-265.20365-118.973706-265.20365-265.207848s118.969509-265.20365 265.20365-265.20365c74.263067 0 145.621264 31.470816 195.776435 86.327509a24.12049 24.12049 0 0 0 34.883618 0.780789l108.298731-108.30293a24.133083 24.133083 0 0 0 0.495339-33.624281C763.707762 88.766424 643.155687 36.730645 513.368479 36.730645c-124.619731 0-241.779993 48.530627-329.899958 136.646393z" fill="#90BF84" p-id="1651"></path><path d="M513.368479 1001.30256c-274.610893 0-498.029762-223.414671-498.029762-498.029761 0-133.019505 51.800703-258.084202 145.864736-352.15663C255.275882 57.052136 380.340578 5.247235 513.368479 5.247235c138.543794 0 267.235379 55.54513 362.361452 156.401184a55.347834 55.347834 0 0 1-1.1376 77.486968l-108.294534 108.302929a55.305856 55.305856 0 0 1-39.341669 16.291615l-1.225754-0.012593a55.817987 55.817987 0 0 1-39.824414-18.084071c-44.202707-48.350122-107.093966-76.080709-172.533283-76.080709-128.87209 0-233.72024 104.84815-233.720241 233.720241 0 128.876288 104.84815 233.724438 233.720241 233.724438 50.864597 0 99.462388-16.409153 139.731768-46.733973l-137.557314-137.557314a55.247087 55.247087 0 0 1-16.291615-39.333273c0-7.341931 1.42305-14.503357 4.235568-21.282785a55.465372 55.465372 0 0 1 51.385122-34.333708h398.168584c30.669039 0 55.620691 24.951652 55.620691 55.62069v398.172782a55.452779 55.452779 0 0 1-34.337906 51.38932 55.377219 55.377219 0 0 1-21.278587 4.231371c-14.860169 0-28.834606-5.78875-39.337471-16.300011l-72.667908-72.667908c-90.193672 78.557404-207.920636 123.100132-327.67513 123.100132z m0-933.088506c-116.207364 0-225.463191 45.252154-307.639089 127.423854-82.167502 82.175897-127.423854 191.431724-127.423853 307.634891 0 239.890989 195.167756 435.062942 435.062942 435.062942 113.739065 0 225.396027-45.99936 306.325181-126.202297l22.260869-22.063574 103.739934 103.744132v-373.086801h-373.0868l171.341111 171.336914-22.579902 22.265067c-56.002689 55.221901-129.871164 85.634874-208.000393 85.634874-163.591995 0-296.68706-133.095065-296.68706-296.691257s133.095065-296.68706 296.68706-296.68706c80.517771 0 157.98375 33.061778 213.759759 90.970263l97.854635-97.858833c-82.595676-84.849888-192.968115-131.483115-311.614394-131.483115z" fill="#5A5A7D" p-id="1652"></path></svg>